<?xml version="1.0" standalone="no"?><!DOCTYPE svg PUBLIC "-//W3C//DTD SVG 1.1//EN" "http://www.w3.org/Graphics/SVG/1.1/DTD/svg11.dtd"><svg class="icon" width="100px" height="81.72px" viewBox="0 0 1253 1024" version="1.1" xmlns="http://www.w3.org/2000/svg"><path d="M1097.351999 912.736588 1130.691838 1023.912922 1009.098845 957.091744C964.765458 968.248562 920.236147 979.416265 876.0878 979.416265 665.174952 979.416265 499.052648 834.736822 499.052648 656.565154 499.052648 478.687373 665.174952 333.703158 876.0878 333.703158 1075.277826 333.703158 1252.633141 478.687373 1252.633141 656.565154 1252.633141 756.900326 1186.334428 845.741255 1097.351999 912.736588ZM753.85261 511.885711C731.778437 511.885711 709.508339 534.210232 709.508339 556.371483 709.508339 578.859275 731.778437 600.889909 753.85261 600.889909 787.377489 600.889909 809.342815 578.859275 809.342815 556.371483 809.342815 534.210232 787.377489 511.885711 753.85261 511.885711ZM997.680793 511.885711C975.759006 511.885711 953.652179 534.210232 953.652179 556.371483 953.652179 578.859275 975.759006 600.889909 997.680793 600.889909 1030.911785 600.889909 1053.170998 578.859275 1053.170998 556.371483 1053.170998 534.210232 1030.911785 511.885711 997.680793 511.885711ZM471.15516 661.909542C471.15516 694.226219 476.173007 725.389117 484.837229 755.12612 471.15516 756.21459 457.364244 756.900326 443.453597 756.900326 388.115778 756.900326 343.630005 745.569353 288.172454 734.554036L133.206969 812.542917 177.540355 678.71552C66.57083 600.889909 0.152386 500.554737 0.152386 378.37397 0.152386 166.699193 199.766914 0 443.453597 0 661.419731 0 852.370037 133.185199 890.727723 312.434453 876.621151 310.856171 862.416616 309.800355 848.037926 309.800355 637.473389 309.800355 471.15516 467.541439 471.15516 661.909542ZM299.43812 189.1761C266.218013 189.1761 232.693134 211.21762 232.693134 244.688075 232.693134 278.038798 266.218013 300.385089 299.43812 300.385089 332.658227 300.385089 354.775939 278.038798 354.775939 244.688075 354.775939 211.21762 332.658227 189.1761 299.43812 189.1761ZM609.684748 189.1761C576.464641 189.1761 543.124802 211.21762 543.124802 244.688075 543.124802 278.038798 576.464641 300.385089 609.684748 300.385089 643.068125 300.385089 665.174952 278.038798 665.174952 244.688075 665.174952 211.21762 643.068125 189.1761 609.684748 189.1761Z" fill="#27AE60" /></svg>